# xmcd
#
# Track frame offsets: 
#        150
#        28598
#        46077
#        63043
#        86714
#
# Disc length: 1439 seconds
#
# Revision: 0
# Processed by: cddbd v1.5.2PL0 Copyright (c) Steve Scherf et al.
# Submitted via: ExactAudioCopy v0.99pb5
#
DISCID=32059d05
DTITLE=Lukas Nelson and Promise of the Real - Lukas Nelson and Promise of 
DTITLE=the Real
DYEAR=2009
DGENRE=Blues
TTITLE0=The Awakening
TTITLE1=Mystery
TTITLE2=My Own Wave
TTITLE3=Want Me Around
TTITLE4=Start To Go
EXTD=
EXTT0=
EXTT1=
EXTT2=
EXTT3=
EXTT4=
PLAYORDER=
